<?xml version="1.0" encoding="UTF-8"?>
<svg version="1.1" viewBox="0 0 2048 1106" width="848" height="458" xmlns="http://www.w3.org/2000/svg">
<path transform="translate(0)" d="m0 0h2048v1106h-2048z" fill="#FDFCFC"/>
<path transform="translate(1035,70)" d="m0 0h6l10 7 5 10 7 21 5 14 2 10v10l-4 24-7 22v13l3 8 5 4 19 5 20 5 20 7 25 12 18 11 9 6 8 1 9-3 5-4 8-14 8-17 7-9 11-12 8-6 5-4 6-2h8l1-4 10-5 7-3 6-1h13l5 5 2 9-4 15-8 14-3 6-3 10-11 13-14 13-11 6-3 2-6 2-13 7-5 4-4 9 1 9 11 18 7 11 12 23 6 16 6 20 6 25 3 5 5 3h15l15-5h3v-2l5-2 20-2h14l13 2 8 4 15 5 13 4 8 6 4 8-1 6-6 7-10 6-22 7-10 4-16 3h-13l-22-5-7-3-7-2-9-3h-5l-10 5-3 5-8 35-7 21-8 19-10 18-13 19-2 5v7l4 6 9 8 20 9 11 7 9 7 7 8 8 13 5 13 7 12 4 15-1 7-4 6-4 2h-9l-17-5-5-5-8-2v-2l-5-1-9-4-10-8-9-9-9-13-4-9-8-15-6-8-7-2-8 1-10 5-14 10-20 11-23 9-16 5-33 8-7 4v17l5 16 4 16 2 15-1 14-4 16-4 8-4 13-6 12-7 7-5 1-5-1-6-4-7-11-8-25-4-10-1-8v-21l2-11 8-24 1-5v-11l-3-6-13-4-33-8-20-7-25-12-18-11-8-6-6-3-10 1-6 4-7 12-5 12-11 17-4 5-8 7-10 7-22 10-10 5-9 3h-10l-5-3-3-5v-11l4-13 3-4 3-7h4v-8l3-7 7-10 16-16 16-9 16-8 9-6 3-6-1-8-7-11-7-10-11-19-7-15-8-22-5-20-4-21-4-5-11-2-21 5-16 5-13 2h-14l-13-3-11-5-16-4-14-7-6-8-1-7 6-8 8-6 30-10 4-2 14-2h16l15 2 14 5 7 3 5 1h13l7-3 4-16 4-18 9-27 11-23 15-24 4-5 4-7v-8l-3-6-5-6-28-14-15-11-8-8-11-17-2-8-6-10-4-6-2-9v-11l3-6 5-2h12l9 3 11 6 18 8 11 7 10 10 10 14 8 16 6 11 7 6 6 3 7-1 12-6 19-12 23-11 30-10 29-7 6-3 3-5 1-4v-9l-5-19-4-10-2-13v-25l3-10 4-9 5-16 3-8 8-9z" fill="#FD110D"/>
<path transform="translate(183,37)" d="m0 0 7 4 36 27 36 26 16 11 31 21 27 18 24 15 25 16 32 19 24 14 23 13 29 16 22 12 29 15 19 10 32 16 28 13 35 17 16 7 1 4-12 22-10 25-6 21-5 30v23l2 22 5 23 6 20 8 21 12 25 15 27 10 14 3 4 1 5-5-2-11-8-13-10-19-19-12-16-10-17-11-23-8-24-6-25-5-31-3-33-1-31-48-17-45-16-34-13-41-16-33-14-33-15-29-14-22-12-20-12-18-12-16-12-14-12-12-11-11-12-11-15-12-21-8-20-6-22-3-21-1-18z" fill="#2F1894"/>
<path transform="translate(1894,37)" d="m0 0h2v43l-5 30-6 21-8 20-10 18-14 19-16 17-8 7-12 10-15 11-23 15-21 12-26 14-36 17-30 13-49 20-35 13-30 11-48 17-25 8-1 1-1 34-1 19-4 30-7 31-8 26-10 23-9 16-10 14-12 14-5 6-11 9-18 14-7 4 3-9 8-11 13-22 12-23 11-26 7-23 6-30 1-9v-31l-3-25-5-20-8-23-12-24-5-7 1-3 24-12 26-12 25-12 23-11 28-14 51-27 23-13 24-13 24-14 22-13 28-17 25-16 19-12 24-16 19-13 25-17 36-26 19-14 17-13z" fill="#2F1894"/>
<path transform="translate(1845,240)" d="m0 0h2l-1 9-4 19-5 13-9 16-8 10-11 12-10 9-17 13-17 10-14 8-17 9-25 11-24 10-36 13-40 13-49 14-38 10-8 26-11 26-9 17-13 19-4 4h-2l1-5 9-27 6-26 4-21 2-19v-32l-1-17 9-3 56-15 46-14 36-12 42-16 30-13 36-17 23-12 23-13 26-15 14-9z" fill="#2F1893"/>
<path transform="translate(231,239)" d="m0 0 5 2 20 13 20 12 26 15 27 14 23 11 32 14 27 11 30 11 33 11 53 16 56 14-2 22v26l4 29 8 36 6 20 5 12-1 3-8-8-9-13-9-16-9-21-7-20-4-12v-2l-12-3-37-10-41-12-49-16-27-10-35-15-29-14-22-13-17-12-13-10-15-15-10-13-8-14-6-15-3-16z" fill="#2F1894"/>
<path transform="translate(1027,388)" d="m0 0h20l15 4 9 5 9 8 8 13 5 15 1 5v7l-4 18-7 12-8 9-11 7-11 5-9 2h-14l-11-4-14-7-9-8-10-16-3-12v-20l4-11 6-10 9-10 11-7 11-4z" fill="#FD110D"/>
<path transform="translate(1030,371)" d="m0 0h15l16 4 16 7 11 9 7 7 7 11 6 16 2 9v18l-3 12-8 17-9 11-9 8-15 8-12 4-5 1h-22l-12-3-16-8-9-7-10-10-7-12-4-11-3-16v-8l3-16 5-12 8-12 5-6 13-10 14-7zm-3 17-12 4-10 6-10 9-7 11-4 9-1 4v20l3 12 10 16 9 8 16 8 9 3h14l12-3 15-8 10-9 6-10 4-8 3-15v-7l-4-15-7-14-9-10-10-6-12-4-5-1z" fill="#FDFDFD"/>
<path transform="translate(1720,412)" d="m0 0h2l-2 5-9 13-9 10-15 11-19 10-19 7-26 7-20 4-30 4-31 3-13 16-10 7-6 2 1-5 6-8 7-14 5-16 2-6 13-3 48-8 33-7 29-7 36-12z" fill="#301892"/>
<path transform="translate(906,340)" d="m0 0 6 1 43 43 7 8 3 3-1 4-7 16-3 6-5 1h-76l-1-1v-7l5-21 10-25 8-14 8-12z" fill="#FDFDFD"/>
<path transform="translate(1158,890)" d="m0 0h10l1 4-10 10-2 4v6l4 6 14 8 20 8 12 8 8 11 2 6 1 9-2 13-6 9-6 7-10 6-11 4-10 1-1-2v-6l11-6 3-6v-6l-6-9-16-7-10-4-6-4-7-3-10-10-4-8-1-6v-10l3-12 6-9 7-6 12-5z" fill="#FD110D"/>
<path transform="translate(1267,890)" d="m0 0h9l1 4-10 9-2 5v7l5 6 16 8 19 8 9 7 8 9 3 6 1 7v9l-3 11-9 11-8 6-12 5-12 2-2-3v-5l11-6 4-6-1-7-8-9-24-10-12-7-10-9-4-8-2-7v-10l3-12 6-9 7-6 12-5z" fill="#FD110D"/>
<path transform="translate(356,412)" d="m0 0 4 1 27 13 30 10 36 9 36 7 54 9 3 5 8 24 11 18 1 3-6-2-9-6-9-9-4-7-2-1-46-5-29-5-25-6-20-7-16-7-14-9-14-12-11-14-5-7z" fill="#331890"/>
<path transform="translate(1082,515)" d="m0 0 5 1 54 54-2 5-5 4-11 7-19 10-19 7-22 5-4-1-1-1v-80l12-5z" fill="#FDFDFD"/>
<path transform="translate(991,516)" d="m0 0h5l7 4 14 5 2 2v80l-1 1-9-1-26-7-13-5-16-8-11-7-5-5-1-5 11-12 20-20 8-7 9-10z" fill="#FDFDFD"/>
<path transform="translate(782,891)" d="m0 0h49v99l-1 18h-46l-3-1 1-5 6-5 2-5-1-89-7-5-1-6z" fill="#FD110D"/>
<path transform="translate(873,461)" d="m0 0h81l3 9 5 14-1 6-47 47-5 6-4 1-7-9-11-19-10-25-4-16-1-13z" fill="#FDFDFD"/>
<path transform="translate(1123,461)" d="m0 0h80l2 2-2 12-5 19-6 16-8 16-9 13-3 4-4-1-15-14-15-16-14-14-5-4-6-9 8-22z" fill="#FDFDFD"/>
<path transform="translate(1013,276)" d="m0 0 5 1 1 1 1 77-2 4-12 5-10 4-5-2-49-49-4-6 1-4 19-12 20-9 19-6z" fill="#FDFDFD"/>
<path transform="translate(1169,340)" d="m0 0 5 5 7 9 10 19 5 12 5 17 3 15-2 4-9 1h-67l-5-3-4-9-4-11 1-6 5-6 8-7 31-31 4-5z" fill="#FDFDFD"/>
<path transform="translate(1059,277)" d="m0 0 10 1 23 6 15 6 12 6 12 7 6 5 1 6-6 5-7 8-9 9h-2l-2 4-8 8h-2l-2 4-10 10-4 5-5 2-13-6-9-4-1-6v-74z" fill="#FDFDFD"/>
<path transform="translate(1058,889)" d="m0 0 6 1 1 4-5 5-5 6-1 4v78l2 10 6 4 2 5-2 3h-13l-14-6-9-7-8-9-5-12-3-12-1-16 2-13 5-15 7-10 7-8 11-7 12-4z" fill="#FD110D"/>
<path transform="translate(936,889)" d="m0 0 6 1-1 5-5 5-2 6v89l5 10v4h-9l-10-4-11-8-9-10-5-7-5-21v-17l4-17 6-12 8-10 12-9 11-4z" fill="#FD110D"/>
<path transform="translate(907,599)" d="m0 0h6l8 5 9 7 20 11 28 11 21 5 18 3 2 1v20l-4 1-32-6-23-7-18-8-23-12-16-11-5-5-1-5 4-6z" fill="#FDFDFD"/>
<path transform="translate(868,300)" d="m0 0 5 2 9 9v6l-10 13-13 22-8 18-8 24-6 28h-16l-3-2v-12l4-20 5-16 7-19 8-16 9-15 10-14z" fill="#FDFDFD"/>
<path transform="translate(1206,301)" d="m0 0 4 1 11 13 11 18 10 19 8 21 6 25 4 16v6l-3 2h-17l-2-7-7-29-7-19-8-18-10-17-8-11-3-7 1-4 5-5z" fill="#FDFDFD"/>
<path transform="translate(1241,461)" d="m0 0h14l5 1v8l-6 28-6 20-9 21-10 18-7 11-9 11-2 2-5-1-6-5-3-4 1-7 7-10 11-18 7-15 8-24 8-33z" fill="#FDFDFD"/>
<path transform="translate(821,461)" d="m0 0h15l2 6 6 28 7 21 14 29 13 19 2 3v5l-5 5-6 4-6-2-4-4-16-25-12-25-8-24-4-19-2-18 1-2z" fill="#FDFDFD"/>
<path transform="translate(1164,599)" d="m0 0h7l7 9-1 7-13 10-20 12-19 9-27 9-22 5-16 2-2-1v-18l5-2 26-6 20-6 15-6 21-11 3-3 5-3 9-6z" fill="#FDFDFD"/>
<path transform="translate(1061,222)" d="m0 0 8 1 22 5 19 5 24 10 24 13 16 11 3 3v5l-9 10-7-1-8-6-13-8-8-5-23-10-25-7-24-5-2-2 1-15z" fill="#FDFDFD"/>
<path transform="translate(1015,222)" d="m0 0 3 1 1 3v16l-10 2-32 8-19 7-19 9-13 8-8 6-5 3-5-2-9-10-1-3 26-17 23-12 15-6 20-6z" fill="#FDFDFD"/>
<path transform="translate(947,950)" d="m0 0h50v7l-3 2-1 7-1 25-6 7-12 6-17 5h-7l-1-5 5-5 2-10v-22l-1-7-8-4z" fill="#FD110D"/>
<path transform="translate(1514,358)" d="m0 0m-1 1 3 2-37 12-1 1-1 34-1 19-4 30-7 31-8 26-10 23-9 16-10 14-12 14-5 6-11 9-18 14-7 4 3-9 8-11 4-7 2 1-1 3 4 1 1 2 4-2 5-5h2l1-4 8-10 3-4h2v-2h2l1-3 4-5 3-3 3-5h2l1-5 5-10 5-14 5-12 7-22 6-27 3-15 1-14 3-14 1-8-1-15 1-13 2-9 5-3 6-1 1-2 9-3 11-4z" fill="#320F76"/>
<path transform="translate(1869,161)" d="m0 0 1 3-11 16-8 10-14 15-8 7-12 10-15 11-23 15-21 12-26 14-36 17-30 13-49 20-35 13-3 1 2-4h4v-2l13-5 6-3 10-2 4-3 10-4 5-1v-2l11-4 18-6v-2l10-3h3v-2l8-3 12-6 16-7 16-8 10-4 17-9 9-6 12-6 13-8 4-3 5-2 5-5 8-6h2v-2l8-5h2v-2l5-3 10-10h2l2-5h3v-2l4-4h2l2-6 4-6h2l1-5h2v-2l4-1 2-5z" fill="#360F74"/>
<path transform="translate(515,366)" d="m0 0 68 17-2 22v26l4 29 8 36 6 20 5 12-1 3-8-8-9-13-9-16-9-21-6-17v-3h2l3 6 3 10v3h2l3 5v2l2 1 4 10h2l2 8 3-1-2-13-1-6-1-8-3-6-2-11v-8l-2-4-1-6v-15h2l-1-15-1-2v-15l-2-4-23-6-18-4-17-5z" fill="#380F73"/>
<path transform="translate(1673,432)" d="m0 0 1 3h-3v2l-23 8-22 4-8 3-12 2-13 3-13 1-6 1h-8l-6 3h-9l-6 2-7 1-3 5-2 7 1 8h4l17-4 13 1-4 2-22 2-13 16-10 7-6 2 1-5 6-8 7-14 5-16 2-6 13-3 48-8 33-7 29-7z" fill="#360F74"/>
<path transform="translate(1505,381)" d="m0 0 2 1-6 5-1 7v38l1 11-2 16-4 17-1 1-3 18 3 1 8-13 7-19 4-15 2-6h2l1-4h2v-2h2l-3 12-7 21-10 23-10 18-11 16-4 4h-2l1-5 9-27 6-26 4-21 2-19v-32l-1-17z" fill="#370F73"/>
<path transform="translate(918,630)" d="m0 0 5 1 27 14 22 8 20 5 27 5-5 9-7-1-37-9-20-7-25-12-11-7 3-1z" fill="#F00E16"/>
<path transform="translate(664,346)" d="m0 0 1 3-10 23-7 23-4 20-2 14v23l2 22 5 23 6 20 8 21 12 25 15 27 8 12v2l-4-1v-2l-3-1-5-6-1-7-7-12-10-16-8-16-4-10-4-12-4-10-2-4-1-9-4-10-1-13v-12l-1-22-1-5v-11l3-6-2-1 1-2 2-17 2-5 4-17 4-5 1-7 4-8 2-1 2-7 3-1z" fill="#3A0F72"/>
<path transform="translate(951,890)" d="m0 0h8l16 4h7l5-4h6l1 3-1 41-2 1-6-4-8-16-8-11-6-4-10-3-2-2z" fill="#FD110D"/>
<path transform="translate(1103,890)" d="m0 0h6l1 1v39l-1 4h-7l-3-7-8-16-8-8-12-8 1-4h10l8 3 9 1 2-4z" fill="#FD110D"/>
<path transform="translate(853,305)" d="m0 0 2 1-3 6-2 1-3 9h-2l-1 6 1 5-8 16-6 14-7 21-6 27-2-3h-3l-2 4-2 1 1-11 4-18 9-27 11-23 15-24z" fill="#F00E16"/>
<path transform="translate(1234,967)" d="m0 0h7l3 5 7 14 8 9 11 8 1 5-2 1-9-1-8-4-7 1-6 2h-5z" fill="#FD110D"/>
<path transform="translate(1127,966)" d="m0 0 7 2 8 16 7 10 12 8 2 2-1 5h-7l-10-4-5-1-9 4-4-1-1-6v-34z" fill="#FD110D"/>
<path transform="translate(874,971)" d="m0 0h2l2 7 1 22-1 8h-36l-2-2 2-5 5-3 8-4 9-8z" fill="#FD110D"/>
<path transform="translate(1178,890)" d="m0 0h8l14 5 4-3 8-1 2 2-1 31-2 6-6-3-8-16-8-8-11-6-1-5z" fill="#FD110D"/>
<path transform="translate(1287,890)" d="m0 0 9 1 9 3h5l6-3h5l1 11v17l-2 9-4 2-4-5-7-14-8-8-10-6-2-2 1-4z" fill="#FC110D"/>
<path transform="translate(841,891)" d="m0 0h35l1 1v12l-1 21-5-2-5-6-6-8-10-6-8-5-2-3z" fill="#FD110D"/>
<path transform="translate(1073,216)" d="m0 0 9 1 24 6 20 7 25 12 3 2-2 4-6-2-3-2-5-1v-2h-2v-2h-13l-19-7-30-7-6-2 2-1 2-4z" fill="#F00E16"/>
<path transform="translate(1264,477)" d="m0 0h2l-1 10-5 20-6 18-8 19-2 1-2-1-2 4-3 1-1 3-2 1-3 5-3 1 2-5 11-21 9-24 6-25 4-2z" fill="#F00E15"/>
<path transform="translate(1235,325)" d="m0 0h2l15 29 9 27v12l1 6-2 4-2 2-3-7-6-25-10-25-6-12 1-3 1-2h-2l1-5z" fill="#EF0E16"/>
<path transform="translate(1701,379)" d="m0 0m-4 1 5 1-3 2-19 8-37 13-34 11-49 14-34 9h-2v-2l8-4 5 1v-2l6-1h6l1-3 16-5 9-3 14-1 8-3 3-2 7-1 9-4 7-1 5-1 11-4 13-6 15-5 5-2h7l2-4 12-3z" fill="#380F73"/>
<path transform="translate(1438,436)" d="m0 0h1l1 22v14l-3 19-5 19-4 11-4 13-8 16-5 8-3 6-5 7h-2v5l-4 4-3 5-2-1 12-21 12-25 8-21 6-22 5-25 1-9 1-22z" fill="#370F74"/>
<path transform="translate(856,925)" d="m0 0 3 1 1 5v39l-4 1-4-4-4-8-8-8v-6l5-5 8-11z" fill="#FD110D"/>
<path transform="translate(1845,240)" d="m0 0h2l-1 9-4 19-5 13-9 16-8 10-11 12-10 9-17 13-8 4 2-4 9-8 8-6 5-4h2v-2h2v-2l8-7 12-13 3-3 2-6 7-14 3-13v-11l-2-3-3-1z" fill="#340F75"/>
<path transform="translate(818,478)" d="m0 0 2 4 5 23 8 22 8 17v4l-4 2 2 6h-2l-8-15-9-21-5-16v-6l2 1 1-4z" fill="#F00E16"/>
<path transform="translate(183,37)" d="m0 0 7 4 36 27 36 26 16 11 31 21 27 18 24 15 5 4-5-1-13-8-21-13-10-7-5-3-17-12-22-15-15-10-10-7v-2l-5-2-12-9-18-13-14-11-10-7-3-1v41h-1l-1-8z" fill="#4A0F69"/>
<path transform="translate(1894,37)" d="m0 0h2v43l-5 30-6 21-8 20-4 8-3-1 2-2 2-8 3-6 2-8 3-8 5-22 2-4h2l-1-5h2v-23l1-4-1-2v-11l-2-7-4-1-2-2zm-12 9 2 1-4 2zm-4 3 2 1h-3z" fill="#420F6E"/>
<path transform="translate(1105,975)" d="m0 0 5 1v7l-5 10-8 8-10 6-9 3-4-1-1-6 8-5 11-6 6-7 4-9z" fill="#FD110D"/>
<path transform="translate(1533,470)" d="m0 0h1v5l-1 2 1 8h4l17-4 13 1-4 2-22 2-13 16-10 7-6 2 1-5 6-8 7-14 4-12z" fill="#330F76"/>
<path transform="translate(533,460)" d="m0 0 10 1 3 5 8 24 11 18 1 3-6-2-9-6-9-9-3-5 1-4h2v2h2l2 3 3 1-1-6-9-18-1-5h-5z" fill="#350F75"/>
<path transform="translate(1720,412)" d="m0 0h2l-2 5-9 13-9 10-15 11-17 9v-3l8-6 3-2 10-7h2v-2l6-5 4-6 1-5h-4v-2z" fill="#390F73"/>
<path transform="translate(1235,325)" d="m0 0h2l15 29 1 5-3 6h-3l-2-3-8-18-4-8 1-3 1-2h-2l1-5z" fill="#F10E15"/>
<path transform="translate(515,366)" d="m0 0 68 17-2 22-1 21h-1l-2-21-1-2v-15l-2-4-23-6-18-4-17-5z" fill="#311079"/>
<path transform="translate(356,412)" d="m0 0 4 1 25 12v2l-7-1-2 4 5 8 5 4 4 6-4-1-14-12-11-14-5-7z" fill="#380F73"/>
<path transform="translate(1869,161)" d="m0 0 1 3-11 16-8 10-14 15-8 7-12 10-15 11-4 3-3-1 5-5 8-7 4-1v-2l8-5h2v-2l5-3 10-10h2l2-5h3v-2l4-4h2l2-6 4-6h2l1-5h2v-2l4-1 2-5z" fill="#400F6E"/>
<path transform="translate(630,532)" d="m0 0 3 1 2 6h2l3 3 6 11 3 8 10 9v2h2l-1 4 3-1v2h3l4 5v3l6 2v2l4 2 5 5 2 6-8-6-8-7-15-15-12-16-10-17z" fill="#410F6F"/>
<path transform="translate(402,328)" d="m0 0 9 3 30 11 33 11 39 12v2l-9-2-21-6-4-1-54-18-20-8-3-3z" fill="#490F6A"/>
<path transform="translate(664,346)" d="m0 0 1 3-10 23-7 23-4 20-1 7-4-4 1-2 2-17 2-5 4-17 4-5 1-7 4-8 2-1 2-7 3-1z" fill="#361075"/>
<path transform="translate(1892,94)" d="m0 0h1l-1 11-5 20-7 19-7 15-3-1 2-2 2-8 3-6 2-8 3-8 5-22 2-4h2l-1-5z" fill="#350F75"/>
<path transform="translate(602,391)" d="m0 0 2 1v17l3 31 2 2 1 12 1 1v10l1 8h2l2 6v11h-2l-6-26-4-26-3-33v-13z" fill="#360F75"/>
<path transform="translate(1823,297)" d="m0 0h3l-1 4-12 14-14 13-17 13-8 4 2-4 9-8 8-6 5-4h2v-2h2v-2l8-7 12-13z" fill="#3F0F6F"/>
<path transform="translate(403,187)" d="m0 0 5 2 21 12 24 14 29 16 22 12v2l-6-2-44-24-10-6-18-10-15-9-8-5z" fill="#4B0F69"/>
<path transform="translate(242,278)" d="m0 0 4 5 8 12v3l4 2 7 7 7 8 4 4v3l5 1 4 6 6 5h-3l-13-10-15-15-10-13-8-14z" fill="#420F6E"/>
<path transform="translate(1390,587)" d="m0 0 2 1-1 3 4 1 1 2h3l-1 4-16 12-7 4 3-9 8-11z" fill="#331079"/>
<path transform="translate(1844,74)" d="m0 0 2 1-5 4-3 3h-2l-2 4-9 6h-3v2l-3 1-1 2h-3l-1 3-8 5h-3v2l-4 3h-3v2h-3l-1 3-8 4-2-1 17-12 15-10 18-13zm-64 45 2 1h-3zm-3 2 2 1-1 2-7 4-2-1zm-10 7 2 1-8 6-3-1z" fill="#500F66"/>
<path transform="translate(578,419)" d="m0 0h1l6 41 2 10v5l-2-2-4-9-2-11v-8l-2-4-1-6v-15z" fill="#340F75"/>
<path transform="translate(1105,975)" d="m0 0 4 1v3l-5 1-4 7-3 4h-2l-1 3-10 7-2 3 1 4-5 2-4-1-1-6 8-5 11-6 6-7 4-9z" fill="#F20F15"/>
<path transform="translate(1104,891)" d="m0 0h6v39l-1 4h-6l3-10-1-6 1-6v-15l1-4-4-1z" fill="#F10E15"/>
<path transform="translate(1526,269)" d="m0 0m-2 1h2l-2 4-26 13-5 2-10 5-9 3-5 2v-2l39-19z" fill="#480F6A"/>
<path transform="translate(1819,256)" d="m0 0 2 1h-3zm-3 2 2 1-5 2zm-5 3 2 1-3 1v2l-7 2v2l-3 1-1 2-10 3v2l-5 1v2l-16 9-6 1v2l-6 2 2-4 27-14 24-14z" fill="#560F64"/>
<path transform="translate(1081,658)" d="m0 0h8l-4 2-6 2 1 5-7 3h-6l2-1-1-4-8-2 4-2z" fill="#F00E16"/>
<path transform="translate(1565,456)" d="m0 0 3 1-5 4-6 1h-6l-6 2-7 1-3 5-3 1 2-9 13-3z" fill="#3E0F70"/>
<path transform="translate(251,252)" d="m0 0 5 2 20 12 26 15 12 6v2l-6-2-24-13-22-13-11-7z" fill="#580F62"/>
<path transform="translate(1505,381)" d="m0 0 2 1-6 5-1 7v35l-2 3-1-31-1-17z" fill="#511067"/>
<path transform="translate(662,575)" d="m0 0 1 2h3l4 5v3l6 2v2l4 2 5 5 2 6-8-6-8-7-11-11v-2z" fill="#351077"/>
<path transform="translate(515,366)" d="m0 0 16 4 43 11v2l-11-2-30-7-17-5z" fill="#4B0F69"/>
<path transform="translate(183,37)" d="m0 0 7 4 12 9v2l-4-2-10-7-3-1v41h-1l-1-8z" fill="#5C1164"/>
<path transform="translate(782,891)" d="m0 0h48v8l-1-4-4-1h-41l-2 3-1-5z" fill="#F40F13"/>
<path transform="translate(993,217)" d="m0 0h7l-3 2-6 2 2 5-2 2-9 2h-4v-2h3l1-3 2-1-5-2 1-2z" fill="#F00E16"/>
<path transform="translate(460,349)" d="m0 0 11 3 42 13v2l-9-2-21-6-4-1-18-6z" fill="#4C0F68"/>
<path transform="translate(202,51)" d="m0 0 4 2 20 15 18 13 4 4-5-1-13-10-18-13-10-8z" fill="#510F65"/>
<path transform="translate(324,294)" d="m0 0 5 1 23 11 25 11v2l-9-3-24-11-19-9z" fill="#4E0F67"/>
<path transform="translate(641,420)" d="m0 0h1v32l1 17-2 2-1-8-1-22-1-5v-11l2-4z" fill="#42106F"/>
<path transform="translate(1633,211)" d="m0 0 2 1-10 6h-2v2l-5 1v2l-12 6-5 4-7 2-11 6-2-1 23-13 24-13zm-54 30 2 1z" fill="#5A0F61"/>
<path transform="translate(1514,358)" d="m0 0m-1 1 3 2-37 12h-3l1-2 9-2 1-2 9-3 11-4z" fill="#3B0F72"/>
<path transform="translate(1614,322)" d="m0 0v3l-34 13v-3l5-1v-2l13-5 6-3z" fill="#3B0F72"/>
<path transform="translate(680,577)" d="m0 0h3l9 16 6 9v2l-4-1v-2l-3-1-5-6-1-7z" fill="#3D0F70"/>
<path transform="translate(987,890)" d="m0 0h6l1 3-1 41-2 1-3-3 2-1 1-8v-26l-1-3-3-1z" fill="#EF0E16"/>
<path transform="translate(593,290)" d="m0 0 9 3 33 16v2l-6-2-24-11-12-6z" fill="#440F6C"/>
<path transform="translate(508,246)" d="m0 0 36 18 7 4v2l-6-2-21-11-16-9z" fill="#400F6E"/>
<path transform="translate(878,422)" d="m0 0h77v1l-71 1-3 1z" fill="#EE0E18"/>
<path transform="translate(877 1e3)" d="m0 0h1v6h-29l-5-1v-2h28l4-1z" fill="#F10E15"/>
<path transform="translate(1869,161)" d="m0 0 1 3-11 16-7 9h-2l2-6 4-6h2l1-5h2v-2l4-1 2-5z" fill="#3C0F72"/>
<path transform="translate(841,891)" d="m0 0h35v5l-1-2-32-1-1 3-2-1z" fill="#F50F13"/>
<path transform="translate(824,522)" d="m0 0 4 5 2 2 2 9 2 2-1 7-3-4-7-16z" fill="#FD110D"/>
<path transform="translate(1701,379)" d="m0 0m-4 1 5 1-3 2-19 8-4 1 1-3h2l2-4 12-3z" fill="#3C0F71"/>
<path transform="translate(325,138)" d="m0 0 5 2 22 14 13 8-3 1-25-15-11-7z" fill="#49106B"/>
<path transform="translate(602,391)" d="m0 0 2 1v17l2 26-2 3-3-33v-13z" fill="#49116E"/>
<path transform="translate(664,346)" d="m0 0 1 3-10 23-2 3-1-7 5-11 2-1 2-7 3-1z" fill="#3D0F71"/>
<path transform="translate(1634,404)" d="m0 0m-3 1h3v2l-25 8h-2l2-4 7-3 7-1 5-1z" fill="#3D0F71"/>
<path transform="translate(553,270)" d="m0 0 6 2 28 14v2l-5-1-16-8-13-7z" fill="#410F6F"/>
<path transform="translate(1245,342)" d="m0 0 3 4 5 10-1 5-3 4h-3l-2-5 1-3 3 2-1-8-2-4z" fill="#FE120D"/>
<path transform="translate(1798,107)" d="m0 0m-2 1 2 1-2 3h-3l-1 3-8 4-2-1zm-16 11 2 1h-3zm-3 2 2 1-1 2-7 4-2-1zm-10 7 2 1-8 6-3-1z" fill="#560F64"/>
<path transform="translate(859,946)" d="m0 0h1v24l-4 1-4-4-1-6 7 2z" fill="#F00E16"/>
<path transform="translate(609,462)" d="m0 0 2 3 1 8h2l2 6v11h-2l-6-26z" fill="#3D1071"/>
<path transform="translate(670,327)" d="m0 0 5 1-1 5-6 10h-3l1-5 3-7z" fill="#380F74"/>
<path transform="translate(1127,966)" d="m0 0 7 2 6 13-1 2-4-6-2-5-2 2h-3v5h-1z" fill="#F00E16"/>
<path transform="translate(1435,407)" d="m0 0 2 3 3 14-2 10-2-4-2-21z" fill="#3E0F70"/>
<path transform="translate(1322,956)" d="m0 0h2l2 10v9l-2 9-2 1v-10h1v-9l-1-5z" fill="#F30F14"/>
<path transform="translate(951,890)" d="m0 0h8l6 2-3 3-9 2-2-2z" fill="#F20F15"/>
<path transform="translate(1566,248)" d="m0 0 2 1-7 4h-2v2l-21 10h-2v2l-5 1v-2l22-11z" fill="#620F5D"/>
<path transform="translate(1736,301)" d="m0 0 3 1-1 2-13 5-2 2h-5v2l-6 3-2-1 3-3z" fill="#4F0F67"/>
<path transform="translate(1772,343)" d="m0 0m-1 1 1 3-19 11-3 1 2-4z" fill="#410F6D"/>
<path transform="translate(646,559)" d="m0 0h2l5 6 6 5v2h2l-1 5-5-5-9-11z" fill="#440F6D"/>
<path transform="translate(1777,280)" d="m0 0 2 1-4 4-10 5h-3v2l-6 2 2-4z" fill="#47106C"/>
<path transform="translate(865,984)" d="m0 0h2l-2 5-3 1v2l-11 8-4 2h-3v-3l9-4 8-6z" fill="#F50F13"/>
<path transform="translate(478,230)" d="m0 0 6 2 20 11v2l-6-2-11-6-9-5z" fill="#4F0F66"/>
<path transform="translate(303,123)" d="m0 0 5 2 11 8 6 4v2l-5-2-9-6-8-6z" fill="#4F0F67"/>
<path transform="translate(228,189)" d="m0 0 4 1v2l4 2 7 8 5 6-5-2-13-13z" fill="#590F61"/>
<path transform="translate(818,506)" d="m0 0 5 5v9l-2 2-4-11z" fill="#FC110E"/>
<path transform="translate(617,495)" d="m0 0 2 2 6 18 1 5h-2l-6-16-2-8z" fill="#551065"/>
<path transform="translate(377,171)" d="m0 0 5 2 20 12v2l-6-2-11-7-8-5z" fill="#4C0F68"/>
<path transform="translate(251,252)" d="m0 0 5 2 18 11v2l-5-2-12-7-6-4z" fill="#4D0F68"/>
<path transform="translate(183,37)" d="m0 0 7 4 12 9v2l-4-2-10-7-4-1z" fill="#5B1062"/>
<path transform="translate(379,319)" d="m0 0 5 1 17 7v2l-6-1-16-7z" fill="#4A0F69"/>
<path transform="translate(231,239)" d="m0 0 5 2 14 9v2l-6-2-9-6-3-1z" fill="#5B1063"/>
<path transform="translate(1540,348)" d="m0 0 4 2-3 2-15 5 1-3 5-1v-2l7-2z" fill="#440F6D"/>
<path transform="translate(457,218)" d="m0 0 16 8 5 3v2l-6-2-15-9z" fill="#3F0F6F"/>
<path transform="translate(927,249)" d="m0 0 3 1-15 10-3-1 3-3h3v-2h2l1-3z" fill="#F20F15"/>
<path transform="translate(384,383)" d="m0 0 7 1 12 6-2 2-17-7z" fill="#410F6F"/>
<path transform="translate(1598,355)" d="m0 0 2 1-3 3-8 1-1 2h-7v-2z" fill="#530F65"/>
<path transform="translate(249,210)" d="m0 0 4 1 5 4 4 2 5 7-5-2-13-11z" fill="#4A0F6A"/>
<path transform="translate(987,890)" d="m0 0h6l1 3v12h-1l-1-7-2-4-3-1z" fill="#F40F13"/>
<path transform="translate(1555,481)" d="m0 0 13 1-4 2-15 1 1-3z" fill="#43106F"/>
<path transform="translate(403,187)" d="m0 0 5 2 12 7v2l-5-2-11-6z" fill="#4C0F68"/>
<path transform="translate(1180,998)" d="m0 0h3v2l-6 3h-3l1 6-3-1v-6z" fill="#F20F14"/>
<path transform="translate(1667,458)" d="m0 0m-3 1 4 1-3 2-11 4 1-4z" fill="#44106E"/>
<path transform="translate(1571,336)" d="m0 0h7l-1 3-12 4 2-4h3z" fill="#3E0F70"/>
<path transform="translate(922,638)" d="m0 0 7 3 5 3 1 3-6-2-9-5z" fill="#FD110D"/>
<path transform="translate(1380,603)" d="m0 0 2 4-1 4-6 3 3-9z" fill="#581168"/>
<path transform="translate(1608,411)" d="m0 0m-1 1m-3 0 3 1v2l-9 3-4-1 3-3z" fill="#330F75"/>
<path transform="translate(1231,389)" d="m0 0h2l2 9v9l-2-1-2-12z" fill="#F10E15"/>
<path transform="translate(235,261)" d="m0 0h2l3 6 2 6v4h-2l-5-14z" fill="#511068"/>
<path transform="translate(1105,975)" d="m0 0 4 1v3l-5 1-2 3h-2l1-6z" fill="#F10E15"/>
<path transform="translate(1751,294)" d="m0 0 2 1-4 4-9 4-2-1 3-3z" fill="#331078"/>
<path transform="translate(1265 1e3)" d="m0 0 4 1 2 2v4l-2 1h-6l-1-2h5z" fill="#F20F14"/>
<path transform="translate(287,112)" d="m0 0 9 5 7 5v2l-5-2-11-8z" fill="#460F6B"/>
<path transform="translate(1813,97)" d="m0 0m-2 1 2 1-5 5-5 1v2l-4 3-2-1 5-5z" fill="#400F6E"/>
<path transform="translate(828,535)" d="m0 0 3 1 3 4-1 7-3-4-2-5z" fill="#FB110E"/>
<path transform="translate(1877,145)" d="m0 0 1 4-5 10-3-1 2-2 2-8z" fill="#480F6B"/>
<path transform="translate(186,92)" d="m0 0h2l1 7v7l-2 2-2-15z" fill="#4F1069"/>
<path transform="translate(1532,432)" d="m0 0 4 1 2 2-14 3v-2z" fill="#49106C"/>
<path transform="translate(443,210)" d="m0 0 14 7v2l-5-1-9-6z" fill="#470F6A"/>
<path transform="translate(893,967)" d="m0 0 3 4 3 11 1 2-4-2-3-10z" fill="#F20F14"/>
<path transform="translate(364,374)" d="m0 0 14 6 5 2-2 2-16-7z" fill="#44106E"/>
<path transform="translate(1568,364)" d="m0 0v3h-3l-1 2-10 1v-2z" fill="#4F0F66"/>
<path transform="translate(202,51)" d="m0 0 4 2 9 7v2l-4-2-9-7z" fill="#4B106A"/>
<path transform="translate(1062 1e3)" d="m0 0 1 3-1 1h-13l-1-2 13-1z" fill="#F20F15"/>
<path transform="translate(1159 1e3)" d="m0 0 4 2-1 5h-7l-1-2 5-1z" fill="#F20F14"/>
<path transform="translate(1402,569)" d="m0 0 1 2h-2v5l-4 4-3 5-2-1 8-14z" fill="#541066"/>
<path transform="translate(1539,430)" d="m0 0h9v2l-7 2h-5l1-3z" fill="#311078"/>
<path transform="translate(1737,363)" d="m0 0m-2 1h2l-1 3-12 5 1-3z" fill="#450F6C"/>
<path transform="translate(573,280)" d="m0 0 6 2 8 4v2l-5-1-9-5z" fill="#510F66"/>
<path transform="translate(508,246)" d="m0 0 15 7v2l-4-1-11-6z" fill="#5A0F61"/>
<path transform="translate(1491,365)" d="m0 0m-1 1m-4 1 3 1v2l-10 3h-3l1-2 9-2z" fill="#47106C"/>
<path transform="translate(449,346)" d="m0 0 7 1 5 3-4 1-8-3z" fill="#400F6F"/>
<path transform="translate(853,305)" d="m0 0 2 1-3 6-2 1-1 3-4 2 2-5z" fill="#F20F14"/>
<path transform="translate(786,999)" d="m0 0 2 1-3 3h-2v2l6 1v1h-8l1-5z" fill="#F20F14"/>
<path transform="translate(991,951)" d="m0 0h5v7l-3 1z" fill="#EE0E17"/>
<path transform="translate(1252,373)" d="m0 0 2 3 1 8h-3l-2-10z" fill="#FE120D"/>
<path transform="translate(1254,362)" d="m0 0 2 3 2 8-3 1-2-10z" fill="#F91010"/>
<path transform="translate(852,996)" d="m0 0 3 1-8 5h-3v-3z" fill="#F20F14"/>
<path transform="translate(948,951)" d="m0 0 6 1-2 5h-4z" fill="#EE0E17"/>
<path transform="translate(1261,406)" d="m0 0 2 1-1 7-2 3-1-9z" fill="#EF0E16"/>
<path transform="translate(208,160)" d="m0 0 3 3 6 9v2h-2l-7-11z" fill="#520F66"/>
<path transform="translate(1760,350)" d="m0 0m-1 1m-2 1 3 1-3 3-7 3 2-4z" fill="#4C0F69"/>
</svg>
